<?xml version="1.0" encoding="UTF-8" standalone="no"?>
<svg
   xmlns:dc="http://purl.org/dc/elements/1.1/"
   xmlns:cc="http://creativecommons.org/ns#"
   xmlns:rdf="http://www.w3.org/1999/02/22-rdf-syntax-ns#"
   xmlns:svg="http://www.w3.org/2000/svg"
   xmlns="http://www.w3.org/2000/svg"
   id="svg8"
   version="1.1"
   viewBox="0 0 27.490736 27.399357"
   height="27.399357mm">
  <defs
     id="defs2" />
  <metadata
     id="metadata5">
    <rdf:RDF>
      <cc:Work
         rdf:about="">
        <dc:format>image/svg+xml</dc:format>
        <dc:type
           rdf:resource="http://purl.org/dc/dcmitype/StillImage" />
        <dc:title></dc:title>
      </cc:Work>
    </rdf:RDF>
  </metadata>
  <g
     transform="translate(-38.355431,-111.31517)"
     id="layer1">
    <path
       id="path880"
       d="m 42.893006,137.1736 c -1.444539,-0.72069 -2.151974,-1.44522 -2.924199,-2.99488 -1.647893,-3.30689 0.179482,-7.67062 3.632349,-8.67396 2.228593,-0.64759 4.171574,-2.29249 4.171574,-3.5316 0,-0.32417 -0.367945,-1.05225 -0.817655,-1.61796 -1.56324,-1.96648 -1.928237,-3.64044 -1.135771,-5.2089 0.970476,-1.92078 2.32026,-2.83113 4.197744,-2.83113 3.286673,0 4.994299,2.17485 4.70553,5.99302 -0.134678,1.78075 -0.101751,1.93746 0.542401,2.58161 0.552127,0.55213 0.939469,0.68579 1.98746,0.68579 0.715923,0 1.808319,-0.17876 2.427544,-0.39723 2.132568,-0.75242 4.356177,0.51811 5.013092,2.86438 1.118026,3.9932 -4.167222,6.92338 -6.775862,3.75659 -0.413475,-0.50194 -1.036051,-1.28304 -1.383496,-1.73577 -1.390325,-1.81161 -4.194802,-2.74852 -5.070131,-1.69381 -0.588412,0.70899 -0.640451,3.15584 -0.09687,4.55487 1.264245,3.25382 -0.01781,6.70692 -3.067851,8.26293 -1.388282,0.70825 -3.971642,0.70158 -5.405857,-0.0139 z"
       style="stroke-width:0.26458332" />
  </g>
</svg>
